<svg width="1128" height="191" viewBox="0 0 1128 191" fill="none" xmlns="http://www.w3.org/2000/svg">
<g clip-path="url(#clip0)">
<rect width="1128" height="191" fill="#DFE7EF"/>
<g opacity="0.35">
<rect width="36.3372" height="46.0613" transform="matrix(0.0910104 1.0013 -0.962443 0.282781 140.429 32.4966)" fill="url(#paint0_linear)"/>
<rect width="43.6046" height="55.2735" transform="matrix(0.0910107 1.0013 -0.962443 0.282781 87.8906 3.99194)" fill="url(#paint1_linear)"/>
<rect width="20.8939" height="26.4852" transform="matrix(0.0910105 1.0013 -0.962443 0.282781 5.55463 27.0532)" fill="url(#paint2_linear)"/>
<rect width="29.0698" height="36.849" transform="matrix(0.0910107 1.0013 -0.962443 0.282781 79.3416 84.4031)" fill="url(#paint3_linear)"/>
<rect width="41.455" height="32.7035" transform="matrix(-0.962443 0.282781 0.0910107 1.0013 211.499 45.3098)" fill="url(#paint4_linear)"/>
<rect width="11.5154" height="9.0843" transform="matrix(-0.962443 0.282781 0.0910106 1.0013 159.715 83.1169)" fill="url(#paint5_linear)"/>
<rect width="17.273" height="13.6265" transform="matrix(-0.962443 0.282781 0.0910103 1.0013 250.896 14.9023)" fill="url(#paint6_linear)"/>
<rect width="31.0914" height="24.5276" transform="matrix(-0.962443 0.282781 0.0910105 1.0013 193.965 -5.1012)" fill="url(#paint7_linear)"/>
</g>
<path d="M590.91 45.9419V66.3765C590.88 68.7056 591.452 70.4414 592.624 71.584C593.81 72.7266 595.729 73.2979 598.38 73.2979C600.724 73.3125 602.482 72.7705 603.654 71.6719C604.84 70.5732 605.434 68.8813 605.434 66.5962V45.9419H612.135V67.2114C612.252 70.3462 611.308 72.9683 609.301 75.0776C607.309 77.187 603.588 78.293 598.139 78.3955C592.602 78.3076 588.859 77.1504 586.911 74.9238C584.962 72.6973 584.054 69.8481 584.186 66.3765V45.9419H590.91ZM630.878 54.4893C634.291 54.5479 636.935 55.6758 638.81 57.873C640.7 60.0703 641.659 63.0073 641.688 66.6841C641.615 70.3315 640.583 73.1294 638.59 75.0776C636.598 77.0112 634.123 77.9854 631.164 78H624.418V86.5474H618.244V54.4893H630.878ZM624.418 59.521V73.0342H629.494C631.442 73.0195 632.877 72.4043 633.8 71.1885C634.738 69.9727 635.207 68.2441 635.207 66.0029C635.192 63.7178 634.708 62.0625 633.756 61.0371C632.819 60.0117 631.53 59.5063 629.889 59.521H624.418ZM661.288 54.4893V45.9419H667.44V78H654.674C651.935 78.0146 649.496 77.0625 647.357 75.1436C645.233 73.2246 644.113 70.1045 643.996 65.7832C643.981 62.8535 644.853 60.2681 646.61 58.0269C648.368 55.7856 651.056 54.6064 654.674 54.4893H661.288ZM656.74 59.521C655.421 59.5356 654.433 59.7041 653.773 60.0264C653.114 60.334 652.587 60.7075 652.191 61.147C651.84 61.4253 651.474 61.96 651.093 62.751C650.712 63.5273 650.507 64.7944 650.478 66.5522C650.463 68.5151 650.873 70.0825 651.708 71.2544C652.558 72.4116 653.964 73.0049 655.927 73.0342H661.288V59.521H656.74ZM687.348 54.4893C690.468 54.6357 692.672 55.5952 693.961 57.3677C695.265 59.1255 695.895 60.8174 695.851 62.4434V78H678.668C676.735 78 675.116 77.4434 673.812 76.3301C672.509 75.2168 671.835 73.5469 671.791 71.3203C671.806 68.7129 672.509 66.8013 673.9 65.5854C675.307 64.355 677.343 63.7471 680.009 63.7617H689.413L689.479 62.8169C689.538 62.2163 689.303 61.5059 688.776 60.6855C688.263 59.8652 687.099 59.4185 685.282 59.3452H673.351V54.4893H687.348ZM689.479 68.4419H681.459C680.36 68.4419 679.555 68.6689 679.042 69.123C678.529 69.5625 678.273 70.2363 678.273 71.1445C678.288 71.9209 678.529 72.4849 678.998 72.8364C679.481 73.1733 680.089 73.3418 680.822 73.3418H689.479V68.4419ZM709.628 54.4893H716.242V59.1255H709.628V69.2988C709.672 70.8955 710.038 71.9868 710.727 72.5728C711.415 73.144 712.213 73.415 713.122 73.3857H716.242V78H710.243C709.335 77.9854 708.427 77.8169 707.519 77.4946C706.61 77.1724 705.885 76.7476 705.343 76.2202C704.625 75.4438 704.127 74.6235 703.849 73.7593C703.571 72.8804 703.439 72.1113 703.454 71.4521V59.1255H699.037V54.4893H703.454V45.9419H709.628V54.4893ZM730.282 59.3892C729.096 59.4038 728.246 59.5283 727.733 59.7627C727.235 59.9971 726.884 60.2314 726.679 60.4658C726.298 60.832 726.005 61.2715 725.8 61.7842C725.609 62.2822 725.514 62.9707 725.514 63.8496H739.599V68.7495H725.514C725.5 70.2876 725.851 71.4229 726.569 72.1553C727.301 72.873 728.524 73.2246 730.238 73.21H739.599V78H729.645C725.807 77.9121 723.002 76.7622 721.229 74.5503C719.457 72.3384 718.585 69.5771 718.615 66.2666C718.6 62.8096 719.508 60.0044 721.339 57.8511C723.17 55.6831 725.983 54.5625 729.777 54.4893H739.599V59.3892H730.282ZM766.867 54.4893V69.0132C766.837 70.2876 767.057 71.2617 767.526 71.9355C768.009 72.6094 768.888 72.9463 770.163 72.9463H776.051V54.4893H782.226V78.5493C782.196 79.7505 781.977 80.8711 781.566 81.9111C781.156 82.9512 780.731 83.7056 780.292 84.1743C779.838 84.6284 779.054 85.1191 777.941 85.6465C776.828 86.1885 775.509 86.4888 773.986 86.5474H761.154V81.7793H772.711C773.751 81.7354 774.564 81.4424 775.15 80.9004C775.736 80.373 776.037 79.7944 776.051 79.1646V78H769.657C768.295 78 767.013 77.8315 765.812 77.4946C764.611 77.1431 763.703 76.6743 763.087 76.0884C762.179 75.1216 761.549 74.0376 761.198 72.8364C760.861 71.6206 760.7 70.5439 760.714 69.6064V54.4893H766.867ZM798.947 54.0718C803.517 54.2476 806.732 55.6172 808.593 58.1807C810.468 60.7441 811.376 63.4248 811.317 66.2227C811.347 69.5332 810.358 72.3604 808.351 74.7041C806.344 77.0479 803.114 78.2783 798.661 78.3955C794.369 78.249 791.234 76.9746 789.257 74.5723C787.279 72.1699 786.305 69.4233 786.334 66.3325C786.305 63.0952 787.309 60.2754 789.345 57.873C791.381 55.4561 794.582 54.189 798.947 54.0718ZM804.835 66.3325C804.792 63.769 804.206 61.9233 803.078 60.7954C801.95 59.6528 800.543 59.0962 798.859 59.1255C796.881 59.1548 795.38 59.814 794.354 61.103C793.329 62.3921 792.816 64.0986 792.816 66.2227C792.802 68.2588 793.278 69.958 794.245 71.3203C795.211 72.668 796.779 73.3711 798.947 73.4297C800.705 73.4297 802.118 72.8511 803.188 71.6938C804.257 70.522 804.806 68.7349 804.835 66.3325ZM821.139 54.4893V69.6943C821.125 70.6611 821.374 71.4448 821.886 72.0454C822.399 72.6313 823.249 72.9316 824.435 72.9463H830.324V54.4893H836.498V78H824.105C822.465 78 821.066 77.8242 819.909 77.4727C818.766 77.1211 817.873 76.6157 817.228 75.9565C816.627 75.3413 816.107 74.521 815.668 73.4956C815.229 72.4556 815.001 71.4448 814.987 70.4634V54.4893H821.139ZM853.351 64.333V60.8394C853.351 60.312 853.183 59.8799 852.846 59.543C852.523 59.1914 852.062 59.0083 851.461 58.9937H848.166V78H842.277V54.4893H853.021C855.219 54.5039 856.808 54.958 857.79 55.8516C858.771 56.7305 859.254 57.9097 859.24 59.3892V64.333H853.351ZM888.419 59.3892C887.731 59.4038 887.182 59.6089 886.771 60.0044C886.361 60.3853 886.149 60.8833 886.134 61.4985C886.149 62.187 886.369 62.7217 886.793 63.1025C887.233 63.4834 887.819 63.6738 888.551 63.6738H895.67C898.146 63.7471 899.933 64.4941 901.032 65.915C902.145 67.3213 902.694 68.9253 902.68 70.7271C902.577 73.2466 901.874 75.0923 900.57 76.2642C899.267 77.4214 897.934 78 896.571 78H880.18V73.21H894.132C894.923 73.1953 895.539 72.9756 895.978 72.5508C896.432 72.1113 896.659 71.562 896.659 70.9028C896.674 70.2437 896.469 69.687 896.044 69.2329C895.619 68.7788 894.894 68.5444 893.869 68.5298H885.915C883.542 68.4712 881.916 67.8047 881.037 66.5303C880.158 65.2559 879.74 63.7324 879.784 61.96C879.799 60.4072 879.997 59.2061 880.377 58.3564C880.773 57.4922 881.22 56.833 881.718 56.3789C882.099 55.9834 882.765 55.5806 883.717 55.1704C884.669 54.7456 885.805 54.5186 887.123 54.4893H901.471V59.3892H888.419ZM915.38 54.4893H921.994V59.1255H915.38V69.2988C915.424 70.8955 915.79 71.9868 916.479 72.5728C917.167 73.144 917.965 73.415 918.874 73.3857H921.994V78H915.995C915.087 77.9854 914.179 77.8169 913.271 77.4946C912.362 77.1724 911.637 76.7476 911.095 76.2202C910.377 75.4438 909.879 74.6235 909.601 73.7593C909.323 72.8804 909.191 72.1113 909.206 71.4521V59.1255H904.789V54.4893H909.206V45.9419H915.38V54.4893ZM940.165 54.4893C943.285 54.6357 945.49 55.5952 946.779 57.3677C948.083 59.1255 948.712 60.8174 948.668 62.4434V78H931.486C929.552 78 927.934 77.4434 926.63 76.3301C925.326 75.2168 924.652 73.5469 924.608 71.3203C924.623 68.7129 925.326 66.8013 926.718 65.5854C928.124 64.355 930.16 63.7471 932.826 63.7617H942.23L942.296 62.8169C942.355 62.2163 942.121 61.5059 941.593 60.6855C941.081 59.8652 939.916 59.4185 938.1 59.3452H926.168V54.4893H940.165ZM942.296 68.4419H934.276C933.178 68.4419 932.372 68.6689 931.859 69.123C931.347 69.5625 931.09 70.2363 931.09 71.1445C931.105 71.9209 931.347 72.4849 931.815 72.8364C932.299 73.1733 932.907 73.3418 933.639 73.3418H942.296V68.4419ZM962.445 54.4893H969.059V59.1255H962.445V69.2988C962.489 70.8955 962.855 71.9868 963.544 72.5728C964.232 73.144 965.031 73.415 965.939 73.3857H969.059V78H963.061C962.152 77.9854 961.244 77.8169 960.336 77.4946C959.428 77.1724 958.703 76.7476 958.161 76.2202C957.443 75.4438 956.945 74.6235 956.667 73.7593C956.388 72.8804 956.256 72.1113 956.271 71.4521V59.1255H951.854V54.4893H956.271V45.9419H962.445V54.4893ZM978.727 54.4893V69.6943C978.712 70.6611 978.961 71.4448 979.474 72.0454C979.987 72.6313 980.836 72.9316 982.023 72.9463H987.912V54.4893H994.086V78H981.693C980.053 78 978.654 77.8242 977.497 77.4727C976.354 77.1211 975.46 76.6157 974.816 75.9565C974.215 75.3413 973.695 74.521 973.256 73.4956C972.816 72.4556 972.589 71.4448 972.575 70.4634V54.4893H978.727ZM1008.02 54.4893H1014.63V59.1255H1008.02V69.2988C1008.06 70.8955 1008.43 71.9868 1009.12 72.5728C1009.8 73.144 1010.6 73.415 1011.51 73.3857H1014.63V78H1008.63C1007.72 77.9854 1006.82 77.8169 1005.91 77.4946C1005 77.1724 1004.27 76.7476 1003.73 76.2202C1003.01 75.4438 1002.52 74.6235 1002.24 73.7593C1001.96 72.8804 1001.83 72.1113 1001.84 71.4521V59.1255H997.426V54.4893H1001.84V45.9419H1008.02V54.4893ZM1026.23 59.3892C1025.54 59.4038 1024.99 59.6089 1024.58 60.0044C1024.17 60.3853 1023.96 60.8833 1023.95 61.4985C1023.96 62.187 1024.18 62.7217 1024.61 63.1025C1025.05 63.4834 1025.63 63.6738 1026.36 63.6738H1033.48C1035.96 63.7471 1037.75 64.4941 1038.84 65.915C1039.96 67.3213 1040.51 68.9253 1040.49 70.7271C1040.39 73.2466 1039.69 75.0923 1038.38 76.2642C1037.08 77.4214 1035.75 78 1034.38 78H1017.99V73.21H1031.94C1032.74 73.1953 1033.35 72.9756 1033.79 72.5508C1034.24 72.1113 1034.47 71.562 1034.47 70.9028C1034.49 70.2437 1034.28 69.687 1033.86 69.2329C1033.43 68.7788 1032.71 68.5444 1031.68 68.5298H1023.73C1021.35 68.4712 1019.73 67.8047 1018.85 66.5303C1017.97 65.2559 1017.55 63.7324 1017.6 61.96C1017.61 60.4072 1017.81 59.2061 1018.19 58.3564C1018.59 57.4922 1019.03 56.833 1019.53 56.3789C1019.91 55.9834 1020.58 55.5806 1021.53 55.1704C1022.48 54.7456 1023.62 54.5186 1024.94 54.4893H1039.28V59.3892H1026.23Z" fill="#4400CC"/>
<path d="M590.716 132.463C594.343 132.463 596.692 130.881 597.891 128.596H598.083V132H604.539V115.445C604.539 109.596 599.585 107.135 594.12 107.135C588.239 107.135 584.372 109.947 583.429 114.422L589.725 114.933C590.189 113.303 591.643 112.105 594.088 112.105C596.405 112.105 597.731 113.271 597.731 115.285V115.381C597.731 116.963 596.053 117.17 591.787 117.586C586.929 118.033 582.566 119.663 582.566 125.145C582.566 130.002 586.034 132.463 590.716 132.463ZM592.665 127.765C590.572 127.765 589.07 126.79 589.07 124.921C589.07 123.003 590.652 122.06 593.049 121.725C594.535 121.517 596.964 121.165 597.779 120.622V123.227C597.779 125.8 595.654 127.765 592.665 127.765ZM631.825 107.455H624.618L619.536 125.017H619.28L614.183 107.455H606.992L615.573 132H623.243L631.825 107.455ZM641.605 132.463C645.232 132.463 647.581 130.881 648.78 128.596H648.971V132H655.427V115.445C655.427 109.596 650.474 107.135 645.008 107.135C639.128 107.135 635.26 109.947 634.318 114.422L640.614 114.933C641.077 113.303 642.531 112.105 644.976 112.105C647.294 112.105 648.62 113.271 648.62 115.285V115.381C648.62 116.963 646.942 117.17 642.675 117.586C637.817 118.033 633.455 119.663 633.455 125.145C633.455 130.002 636.922 132.463 641.605 132.463ZM643.554 127.765C641.461 127.765 639.959 126.79 639.959 124.921C639.959 123.003 641.541 122.06 643.938 121.725C645.424 121.517 647.853 121.165 648.668 120.622V123.227C648.668 125.8 646.542 127.765 643.554 127.765ZM660.709 132H667.516V107.455H660.709V132ZM664.129 104.29C666.158 104.29 667.82 102.74 667.82 100.839C667.82 98.9531 666.158 97.4031 664.129 97.4031C662.115 97.4031 660.453 98.9531 660.453 100.839C660.453 102.74 662.115 104.29 664.129 104.29ZM673.097 132H679.809V128.069H680.113C681.055 130.114 683.117 132.4 687.08 132.4C692.673 132.4 697.036 127.973 697.036 119.759C697.036 111.322 692.481 107.135 687.096 107.135C682.989 107.135 681.024 109.58 680.113 111.577H679.905V99.2727H673.097V132ZM679.761 119.727C679.761 115.349 681.615 112.552 684.923 112.552C688.294 112.552 690.084 115.477 690.084 119.727C690.084 124.01 688.263 126.982 684.923 126.982C681.647 126.982 679.761 124.106 679.761 119.727ZM708.385 99.2727H701.578V132H708.385V99.2727ZM718.041 141.205C723.107 141.205 725.792 138.616 727.182 134.653L736.722 107.487L729.515 107.455L724.386 125.48H724.13L719.048 107.455H711.889L720.694 132.703L720.295 133.742C719.4 136.043 717.69 136.155 715.293 135.42L713.759 140.501C714.734 140.917 716.316 141.205 718.041 141.205ZM742.647 132.415C744.692 132.415 746.466 130.706 746.482 128.58C746.466 126.487 744.692 124.777 742.647 124.777C740.537 124.777 738.796 126.487 738.812 128.58C738.796 130.706 740.537 132.415 742.647 132.415ZM763.161 132.479C769.697 132.479 773.804 128.644 774.124 123.003H767.7C767.3 125.624 765.574 127.094 763.241 127.094C760.061 127.094 758 124.425 758 119.727C758 115.093 760.077 112.44 763.241 112.44C765.734 112.44 767.332 114.086 767.7 116.531H774.124C773.836 110.858 769.537 107.135 763.129 107.135C755.683 107.135 751.08 112.297 751.08 119.823C751.08 127.286 755.603 132.479 763.161 132.479ZM789.572 132.479C797.019 132.479 801.653 127.382 801.653 119.823C801.653 112.217 797.019 107.135 789.572 107.135C782.126 107.135 777.491 112.217 777.491 119.823C777.491 127.382 782.126 132.479 789.572 132.479ZM789.604 127.206C786.169 127.206 784.411 124.058 784.411 119.775C784.411 115.493 786.169 112.328 789.604 112.328C792.976 112.328 794.734 115.493 794.734 119.775C794.734 124.058 792.976 127.206 789.604 127.206Z" fill="black"/>
</g>
<defs>
<linearGradient id="paint0_linear" x1="18.1686" y1="0" x2="18.1686" y2="46.0613" gradientUnits="userSpaceOnUse">
<stop stop-color="#7B16FF"/>
<stop offset="1" stop-color="#4400CC"/>
</linearGradient>
<linearGradient id="paint1_linear" x1="21.8023" y1="0" x2="21.8023" y2="55.2735" gradientUnits="userSpaceOnUse">
<stop stop-color="#7B16FF"/>
<stop offset="1" stop-color="#4400CC"/>
</linearGradient>
<linearGradient id="paint2_linear" x1="10.4469" y1="0" x2="10.4469" y2="26.4852" gradientUnits="userSpaceOnUse">
<stop stop-color="#7B16FF"/>
<stop offset="1" stop-color="#4400CC"/>
</linearGradient>
<linearGradient id="paint3_linear" x1="14.5349" y1="0" x2="14.5349" y2="36.849" gradientUnits="userSpaceOnUse">
<stop stop-color="#7B16FF"/>
<stop offset="1" stop-color="#4400CC"/>
</linearGradient>
<linearGradient id="paint4_linear" x1="20.7275" y1="0" x2="20.7275" y2="32.7035" gradientUnits="userSpaceOnUse">
<stop stop-color="#7B16FF"/>
<stop offset="1" stop-color="#4400CC"/>
</linearGradient>
<linearGradient id="paint5_linear" x1="5.75768" y1="0" x2="5.75768" y2="9.0843" gradientUnits="userSpaceOnUse">
<stop stop-color="#7B16FF"/>
<stop offset="1" stop-color="#4400CC"/>
</linearGradient>
<linearGradient id="paint6_linear" x1="8.63649" y1="0" x2="8.63649" y2="13.6265" gradientUnits="userSpaceOnUse">
<stop stop-color="#7B16FF"/>
<stop offset="1" stop-color="#4400CC"/>
</linearGradient>
<linearGradient id="paint7_linear" x1="15.5457" y1="0" x2="15.5457" y2="24.5276" gradientUnits="userSpaceOnUse">
<stop stop-color="#7B16FF"/>
<stop offset="1" stop-color="#4400CC"/>
</linearGradient>
<clipPath id="clip0">
<rect width="1128" height="191" fill="white"/>
</clipPath>
</defs>
</svg>
